# xmcd CD database file
#
# Track frame offsets:
#	150
#	21322
#	47855
#	57613
#	74367
#	97795
#	124773
#	143590
#	168594
#	182911
#	211205
#	235588
#
# Disc length: 3371 seconds
#
# Revision: 0
# Processed by: cddbd v1.5.2PL0 Copyright (c) Steve Scherf et al.
# Submitted via: CDex 1.51
#
DISCID=a90d290c
DTITLE=Mundell Lowe and Llowd Wells - This One's For Charlie
DYEAR=2000
DGENRE=Jazz
TTITLE0=Snowfall
TTITLE1=Maya
TTITLE2=How Deep Is The Ocean
TTITLE3=Out Of My Dreams
TTITLE4=Lady Be Good
TTITLE5=Emily
TTITLE6=Lush Life
TTITLE7=I Never Knew
TTITLE8=Total Bounce
TTITLE9=I Remember You
TTITLE10=My One And Only Love
TTITLE11=What's Up Doc
EXTD=YEAR: 2000
EXTT0=
EXTT1=
EXTT2=
EXTT3=
EXTT4=
EXTT5=
EXTT6=
EXTT7=
EXTT8=
EXTT9=
EXTT10=
EXTT11=
PLAYORDER=
